#N canvas 0 50 581 338 10;
#X obj 37 37 r \$1;
#X obj 37 247 pack;
#X obj 37 157 + \$3;
#X obj 77 37 loadbang;
#X obj 77 67 f \$2;
#X obj 77 97 sel 0;
#X obj 77 127 f 1;
#X obj 37 127 *;
#X obj 87 157 r glide;
#X obj 87 217 + 5;
#X obj 17 17 inlet;
#X obj 87 187 * 3333;
#X obj 37 307 outlet~;
#X obj 37 277 vline~;
#X text 165 82 \$1 name;
#X text 165 102 \$2 multiply;
#X text 165 122 \$3 add;
#X text 165 62 Object for control. Multiply \, add \, and glide object
;
#X connect 0 0 7 0;
#X connect 1 0 13 0;
#X connect 2 0 1 0;
#X connect 3 0 4 0;
#X connect 4 0 5 0;
#X connect 5 0 6 0;
#X connect 5 1 7 1;
#X connect 6 0 7 1;
#X connect 7 0 2 0;
#X connect 8 0 11 0;
#X connect 9 0 1 1;
#X connect 10 0 7 0;
#X connect 11 0 9 0;
#X connect 13 0 12 0;
