#N canvas 0 50 1280 677 10;
#X obj 47 67 *~;
#X obj 427 217 vd~ \$0_dly;
#X obj 387 187 *~;
#X obj 427 277 *~;
#X obj 47 317 *~;
#X obj 37 367 +~;
#X obj 37 487 exp~;
#X obj 77 487 exp~;
#X obj 77 457 *~ -1;
#X obj 37 517 -~;
#X obj 38 547 /~;
#X obj 77 517 +~;
#X obj 407 307 delwrite~ \$0_dly 5000;
#X obj 37 217 *~ 0.1;
#X obj 87 37 drfl_vv~ freq_b 5000 10;
#X obj 537 97 drfl_vv~ dly_fm;
#X obj 437 67 drfl_vv~ dry;
#X obj 427 97 drfl_vv~ wet;
#X obj 37 7 drfl_vv~ freq_a 1000 10;
#X obj 37 277 *~;
#X obj 307 37 drfl_vv~ fm 2500;
#X obj 537 67 drfl_vv~ dly_ms 2495 5;
#X obj 37 97 osc~;
#X obj 127 97 osc~;
#X obj 37 607 dac~;
#X obj 38 577 hip~ 5;
#N canvas 495 50 450 432 vcf 0;
#X obj 37 47 inlet~;
#X obj 37 287 outlet~;
#X obj 57 197 vcf~;
#X obj 77 227 vcf~;
#X obj 197 107 sel 0;
#X obj 237 137 b;
#X obj 137 107 pow 0.4;
#X obj 137 137 * 1.5;
#X obj 137 167 + 4.125;
#X obj 197 77 r lpf;
#X obj 97 47 inlet~;
#X obj 37 257 *~;
#X obj 117 257 *~;
#X obj 237 167 f 1;
#X obj 197 167 f 0;
#X obj 137 227 * 3.5;
#X obj 237 197 * -1;
#X obj 237 227 + 1;
#X connect 0 0 2 0;
#X connect 0 0 11 0;
#X connect 2 1 3 0;
#X connect 3 1 12 0;
#X connect 4 0 14 0;
#X connect 4 1 5 0;
#X connect 5 0 13 0;
#X connect 6 0 7 0;
#X connect 7 0 8 0;
#X connect 8 0 2 2;
#X connect 8 0 3 2;
#X connect 9 0 4 0;
#X connect 9 0 6 0;
#X connect 10 0 2 1;
#X connect 10 0 3 1;
#X connect 11 0 1 0;
#X connect 12 0 1 0;
#X connect 13 0 15 0;
#X connect 13 0 16 0;
#X connect 14 0 15 0;
#X connect 14 0 16 0;
#X connect 15 0 12 1;
#X connect 16 0 17 0;
#X connect 17 0 11 1;
#X restore 37 397 pd vcf;
#X obj 37 427 +~;
#X obj 97 367 *~;
#X obj 127 367 *~;
#X obj 147 307 drfl_vv~ lpf_fm_a 4000;
#X obj 147 337 drfl_vv~ lpf_fm_b 4000;
#X obj 667 97 drfl_vv~ fdbk 0.75;
#X obj 187 367 drfl_vv~ lpf 9999 70;
#X text 154 485 tanh(x);
#X connect 0 0 22 0;
#X connect 1 0 3 0;
#X connect 1 0 4 0;
#X connect 2 0 1 0;
#X connect 3 0 12 0;
#X connect 4 0 5 0;
#X connect 5 0 26 0;
#X connect 6 0 9 0;
#X connect 6 0 11 0;
#X connect 7 0 9 1;
#X connect 7 0 11 1;
#X connect 8 0 7 0;
#X connect 9 0 10 0;
#X connect 10 0 25 0;
#X connect 11 0 10 1;
#X connect 13 0 12 0;
#X connect 13 0 19 0;
#X connect 14 0 23 0;
#X connect 15 0 2 1;
#X connect 16 0 19 1;
#X connect 17 0 4 1;
#X connect 18 0 22 0;
#X connect 19 0 5 0;
#X connect 20 0 0 1;
#X connect 21 0 1 0;
#X connect 22 0 2 0;
#X connect 22 0 13 0;
#X connect 22 0 28 0;
#X connect 23 0 0 0;
#X connect 23 0 13 0;
#X connect 23 0 29 0;
#X connect 25 0 24 0;
#X connect 25 0 24 1;
#X connect 26 0 27 0;
#X connect 27 0 8 0;
#X connect 27 0 6 0;
#X connect 28 0 26 1;
#X connect 29 0 26 1;
#X connect 30 0 28 1;
#X connect 31 0 29 1;
#X connect 32 0 3 1;
#X connect 33 0 26 1;
